<?xml version="1.0" encoding="UTF-8" standalone="no"?><!DOCTYPE svg PUBLIC "-//W3C//DTD SVG 1.1//EN" "http://www.w3.org/Graphics/SVG/1.1/DTD/svg11.dtd"><svg width="1024px" height="1024px" version="1.1" xmlns="http://www.w3.org/2000/svg" xmlns:xlink="http://www.w3.org/1999/xlink" xml:space="preserve" xmlns:serif="http://www.serif.com/" style="fill-rule:evenodd;clip-rule:evenodd;stroke-linecap:round;stroke-linejoin:round;stroke-miterlimit:1.5;"><g id="archivespress"><rect x="0" y="0" width="1024" height="1024" style="fill:rgb(62,82,124);stroke:rgb(35,177,0);stroke-width:1px;"/><path id="plugin-archivespress.svg" d="M445.44,64L496.64,145.92L839.68,145.92L839.68,704L184.32,704L184.32,128C184.32,92.677 212.997,64 248.32,64L445.44,64ZM430.305,91.306L248.32,91.306C228.068,91.306 211.626,107.748 211.626,128L211.626,676.694L812.374,676.694L812.374,173.226L496.64,173.226C487.224,173.226 478.474,168.376 473.484,160.393L430.305,91.306ZM496.64,589.796L496.64,562.488L670.72,562.488L670.72,589.796L496.64,589.796ZM496.64,241.494L496.64,214.186L776.96,214.186L776.96,241.494L496.64,241.494ZM447.36,214.186L447.36,418.986L242.56,418.986L242.56,214.186L447.36,214.186ZM420.054,241.494L269.866,241.494L269.866,391.68L420.054,391.68L420.054,241.494ZM447.36,444.16L447.36,648.96L242.56,648.96L242.56,444.16L447.36,444.16ZM420.054,471.466L269.866,471.466L269.866,621.654L420.054,621.654L420.054,471.466ZM496.64,300.658L496.64,273.352L698.88,273.352L698.88,300.658L496.64,300.658ZM496.64,530.632L496.64,503.324L744.96,503.324L744.96,530.632L496.64,530.632ZM496.64,471.466L496.64,444.16L597.76,444.16L597.76,471.466L496.64,471.466ZM496.64,359.822L496.64,332.516L744.96,332.516L744.96,359.822L496.64,359.822ZM646.4,418.986L646.4,391.68L776.96,391.68L776.96,418.986L646.4,418.986ZM624.64,471.466L624.64,444.16L755.2,444.16L755.2,471.466L624.64,471.466ZM496.64,418.986L496.64,391.68L620.8,391.68L620.8,418.986L496.64,418.986Z" style="fill:white;fill-rule:nonzero;"/><path d="M53.92,958.432L78.112,880.032L94.688,880.032L118.88,958.432L109.136,958.432L103.088,938.608L69.712,938.608L63.664,958.432L53.92,958.432ZM72.064,930.096L100.624,930.096L87.184,885.744L85.616,885.744L72.064,930.096Z" style="fill:white;fill-rule:nonzero;"/><path d="M136.24,958.432L136.24,880.032L167.936,880.032C172.789,880.032 177.064,880.872 180.76,882.552C184.456,884.232 187.349,886.621 189.44,889.72C191.531,892.819 192.576,896.533 192.576,900.864L192.576,902.096C192.576,907.248 191.344,911.317 188.88,914.304C186.416,917.291 183.504,919.307 180.144,920.352L180.144,921.92C182.832,921.995 185.053,922.872 186.808,924.552C188.563,926.232 189.44,928.752 189.44,932.112L189.44,958.432L180.144,958.432L180.144,933.232C180.144,930.992 179.528,929.275 178.296,928.08C177.064,926.885 175.216,926.288 172.752,926.288L145.648,926.288L145.648,958.432L136.24,958.432ZM145.648,917.776L167.04,917.776C172.192,917.776 176.168,916.525 178.968,914.024C181.768,911.523 183.168,908.032 183.168,903.552L183.168,902.768C183.168,898.288 181.787,894.797 179.024,892.296C176.261,889.795 172.267,888.544 167.04,888.544L145.648,888.544L145.648,917.776Z" style="fill:white;fill-rule:nonzero;"/><path d="M240.848,960C231.515,960 224.085,957.293 218.56,951.88C213.035,946.467 210.272,938.571 210.272,928.192L210.272,910.272C210.272,899.893 213.035,891.997 218.56,886.584C224.085,881.171 231.515,878.464 240.848,878.464C250.107,878.464 257.219,881.04 262.184,886.192C267.149,891.344 269.632,898.4 269.632,907.36L269.632,907.92L260.336,907.92L260.336,907.024C260.336,901.125 258.749,896.291 255.576,892.52C252.403,888.749 247.493,886.864 240.848,886.864C234.203,886.864 229.013,888.899 225.28,892.968C221.547,897.037 219.68,902.731 219.68,910.048L219.68,928.416C219.68,935.733 221.547,941.427 225.28,945.496C229.013,949.565 234.203,951.6 240.848,951.6C247.493,951.6 252.403,949.715 255.576,945.944C258.749,942.173 260.336,937.339 260.336,931.44L260.336,929.648L269.632,929.648L269.632,931.104C269.632,940.064 267.149,947.12 262.184,952.272C257.219,957.424 250.107,960 240.848,960Z" style="fill:white;fill-rule:nonzero;"/><path d="M290.016,958.432L290.016,880.032L299.424,880.032L299.424,914.864L336.16,914.864L336.16,880.032L345.568,880.032L345.568,958.432L336.16,958.432L336.16,923.376L299.424,923.376L299.424,958.432L290.016,958.432Z" style="fill:white;fill-rule:nonzero;"/><rect x="369.088" y="880.032" width="9.408" height="78.4" style="fill:white;fill-rule:nonzero;"/><path d="M419.488,958.432L395.856,880.032L405.6,880.032L426.992,952.72L428.448,952.72L449.84,880.032L459.584,880.032L435.952,958.432L419.488,958.432Z" style="fill:white;fill-rule:nonzero;"/><path d="M476.944,958.432L476.944,880.032L525.216,880.032L525.216,888.544L486.352,888.544L486.352,914.752L522.08,914.752L522.08,923.264L486.352,923.264L486.352,949.92L525.776,949.92L525.776,958.432L476.944,958.432Z" style="fill:white;fill-rule:nonzero;"/><path d="M571.696,960C566.021,960 560.944,958.992 556.464,956.976C551.984,954.96 548.456,951.917 545.88,947.848C543.304,943.779 542.016,938.683 542.016,932.56L542.016,930.208L551.312,930.208L551.312,932.56C551.312,939.056 553.216,943.891 557.024,947.064C560.832,950.237 565.723,951.824 571.696,951.824C577.819,951.824 582.485,950.443 585.696,947.68C588.907,944.917 590.512,941.445 590.512,937.264C590.512,934.352 589.784,932.037 588.328,930.32C586.872,928.603 584.837,927.203 582.224,926.12C579.611,925.037 576.549,924.085 573.04,923.264L567.216,921.808C562.661,920.613 558.629,919.157 555.12,917.44C551.611,915.723 548.867,913.464 546.888,910.664C544.909,907.864 543.92,904.261 543.92,899.856C543.92,895.451 545.021,891.643 547.224,888.432C549.427,885.221 552.525,882.757 556.52,881.04C560.515,879.323 565.125,878.464 570.352,878.464C575.653,878.464 580.413,879.379 584.632,881.208C588.851,883.037 592.173,885.725 594.6,889.272C597.027,892.819 598.24,897.28 598.24,902.656L598.24,907.36L588.944,907.36L588.944,902.656C588.944,898.848 588.141,895.787 586.536,893.472C584.931,891.157 582.728,889.44 579.928,888.32C577.128,887.2 573.936,886.64 570.352,886.64C565.2,886.64 561.056,887.779 557.92,890.056C554.784,892.333 553.216,895.563 553.216,899.744C553.216,902.507 553.888,904.747 555.232,906.464C556.576,908.181 558.48,909.581 560.944,910.664C563.408,911.747 566.357,912.699 569.792,913.52L575.616,914.976C580.171,915.947 584.259,917.272 587.88,918.952C591.501,920.632 594.395,922.909 596.56,925.784C598.725,928.659 599.808,932.411 599.808,937.04C599.808,941.669 598.651,945.701 596.336,949.136C594.021,952.571 590.755,955.24 586.536,957.144C582.317,959.048 577.371,960 571.696,960Z" style="fill:white;fill-rule:nonzero;"/><path d="M619.856,958.432L619.856,880.032L649.872,880.032C654.576,880.032 658.776,880.947 662.472,882.776C666.168,884.605 669.099,887.2 671.264,890.56C673.429,893.92 674.512,897.989 674.512,902.768L674.512,904.224C674.512,908.928 673.411,912.979 671.208,916.376C669.005,919.773 666.037,922.368 662.304,924.16C658.571,925.952 654.427,926.848 649.872,926.848L629.264,926.848L629.264,958.432L619.856,958.432ZM629.264,918.336L648.864,918.336C653.867,918.336 657.824,917.085 660.736,914.584C663.648,912.083 665.104,908.555 665.104,904L665.104,902.88C665.104,898.325 663.667,894.797 660.792,892.296C657.917,889.795 653.941,888.544 648.864,888.544L629.264,888.544L629.264,918.336Z" style="fill:white;fill-rule:nonzero;"/><path d="M692.768,958.432L692.768,880.032L724.464,880.032C729.317,880.032 733.592,880.872 737.288,882.552C740.984,884.232 743.877,886.621 745.968,889.72C748.059,892.819 749.104,896.533 749.104,900.864L749.104,902.096C749.104,907.248 747.872,911.317 745.408,914.304C742.944,917.291 740.032,919.307 736.672,920.352L736.672,921.92C739.36,921.995 741.581,922.872 743.336,924.552C745.091,926.232 745.968,928.752 745.968,932.112L745.968,958.432L736.672,958.432L736.672,933.232C736.672,930.992 736.056,929.275 734.824,928.08C733.592,926.885 731.744,926.288 729.28,926.288L702.176,926.288L702.176,958.432L692.768,958.432ZM702.176,917.776L723.568,917.776C728.72,917.776 732.696,916.525 735.496,914.024C738.296,911.523 739.696,908.032 739.696,903.552L739.696,902.768C739.696,898.288 738.315,894.797 735.552,892.296C732.789,889.795 728.795,888.544 723.568,888.544L702.176,888.544L702.176,917.776Z" style="fill:white;fill-rule:nonzero;"/><path d="M769.04,958.432L769.04,880.032L817.312,880.032L817.312,888.544L778.448,888.544L778.448,914.752L814.176,914.752L814.176,923.264L778.448,923.264L778.448,949.92L817.872,949.92L817.872,958.432L769.04,958.432Z" style="fill:white;fill-rule:nonzero;"/><path d="M863.792,960C858.117,960 853.04,958.992 848.56,956.976C844.08,954.96 840.552,951.917 837.976,947.848C835.4,943.779 834.112,938.683 834.112,932.56L834.112,930.208L843.408,930.208L843.408,932.56C843.408,939.056 845.312,943.891 849.12,947.064C852.928,950.237 857.819,951.824 863.792,951.824C869.915,951.824 874.581,950.443 877.792,947.68C881.003,944.917 882.608,941.445 882.608,937.264C882.608,934.352 881.88,932.037 880.424,930.32C878.968,928.603 876.933,927.203 874.32,926.12C871.707,925.037 868.645,924.085 865.136,923.264L859.312,921.808C854.757,920.613 850.725,919.157 847.216,917.44C843.707,915.723 840.963,913.464 838.984,910.664C837.005,907.864 836.016,904.261 836.016,899.856C836.016,895.451 837.117,891.643 839.32,888.432C841.523,885.221 844.621,882.757 848.616,881.04C852.611,879.323 857.221,878.464 862.448,878.464C867.749,878.464 872.509,879.379 876.728,881.208C880.947,883.037 884.269,885.725 886.696,889.272C889.123,892.819 890.336,897.28 890.336,902.656L890.336,907.36L881.04,907.36L881.04,902.656C881.04,898.848 880.237,895.787 878.632,893.472C877.027,891.157 874.824,889.44 872.024,888.32C869.224,887.2 866.032,886.64 862.448,886.64C857.296,886.64 853.152,887.779 850.016,890.056C846.88,892.333 845.312,895.563 845.312,899.744C845.312,902.507 845.984,904.747 847.328,906.464C848.672,908.181 850.576,909.581 853.04,910.664C855.504,911.747 858.453,912.699 861.888,913.52L867.712,914.976C872.267,915.947 876.355,917.272 879.976,918.952C883.597,920.632 886.491,922.909 888.656,925.784C890.821,928.659 891.904,932.411 891.904,937.04C891.904,941.669 890.747,945.701 888.432,949.136C886.117,952.571 882.851,955.24 878.632,957.144C874.413,959.048 869.467,960 863.792,960Z" style="fill:white;fill-rule:nonzero;"/><path d="M938.048,960C932.373,960 927.296,958.992 922.816,956.976C918.336,954.96 914.808,951.917 912.232,947.848C909.656,943.779 908.368,938.683 908.368,932.56L908.368,930.208L917.664,930.208L917.664,932.56C917.664,939.056 919.568,943.891 923.376,947.064C927.184,950.237 932.075,951.824 938.048,951.824C944.171,951.824 948.837,950.443 952.048,947.68C955.259,944.917 956.864,941.445 956.864,937.264C956.864,934.352 956.136,932.037 954.68,930.32C953.224,928.603 951.189,927.203 948.576,926.12C945.963,925.037 942.901,924.085 939.392,923.264L933.568,921.808C929.013,920.613 924.981,919.157 921.472,917.44C917.963,915.723 915.219,913.464 913.24,910.664C911.261,907.864 910.272,904.261 910.272,899.856C910.272,895.451 911.373,891.643 913.576,888.432C915.779,885.221 918.877,882.757 922.872,881.04C926.867,879.323 931.477,878.464 936.704,878.464C942.005,878.464 946.765,879.379 950.984,881.208C955.203,883.037 958.525,885.725 960.952,889.272C963.379,892.819 964.592,897.28 964.592,902.656L964.592,907.36L955.296,907.36L955.296,902.656C955.296,898.848 954.493,895.787 952.888,893.472C951.283,891.157 949.08,889.44 946.28,888.32C943.48,887.2 940.288,886.64 936.704,886.64C931.552,886.64 927.408,887.779 924.272,890.056C921.136,892.333 919.568,895.563 919.568,899.744C919.568,902.507 920.24,904.747 921.584,906.464C922.928,908.181 924.832,909.581 927.296,910.664C929.76,911.747 932.709,912.699 936.144,913.52L941.968,914.976C946.523,915.947 950.611,917.272 954.232,918.952C957.853,920.632 960.747,922.909 962.912,925.784C965.077,928.659 966.16,932.411 966.16,937.04C966.16,941.669 965.003,945.701 962.688,949.136C960.373,952.571 957.107,955.24 952.888,957.144C948.669,959.048 943.723,960 938.048,960Z" style="fill:white;fill-rule:nonzero;"/></g></svg>